# xmcd
#
# Track frame offsets: 
#        183
#        15408
#        28333
#        42795
#        56845
#        72558
#        88383
#        102820
#        117908
#        133195
#        148695
#        162020
#        178545
#        191695
#        205083
#        221545
#        234133
#        247933
#        262220
#        277420
#        289283
#        303133
#
# Disc length: 4248 seconds
#
# Revision: 7
# Processed by: cddbd v1.5.2PL0 Copyright (c) Steve Scherf et al.
# Submitted via: ExactAudioCopy v1.3
#
DISCID=4f109616,60109616
DTITLE=Truck Stop - Fest im Sattel
DYEAR=1988
DGENRE=Country
TTITLE0=Weil ihr die Country Music liebt
TTITLE1=Die alten Schnulzen
TTITLE2=Big White Diesel
TTITLE3=Ich bin ein norddeutsches Rindvieh
TTITLE4=Unser See
TTITLE5=Noch 'ne Mark
TTITLE6=Tanz mit mir
TTITLE7=Hinterm Lenker
TTITLE8=Es tut so gut
TTITLE9=Er oder ich
TTITLE10=Schönen guten Morgen
TTITLE11=Engel und Held
TTITLE12=We Are The Cowboys
TTITLE13=Take It Easy
TTITLE14=Daddy And Me
TTITLE15=Wild West Cowboys
TTITLE16=Hilly Billy Country Lilly (English Version)
TTITLE17=Tackle An' Baite
TTITLE18=Highways And Bridges
TTITLE19=T.V.  Cowboy
TTITLE20=The Old Bridge
TTITLE21=Jeans And Country Music
EXTD=YEAR: 1988
EXTT0=
EXTT1=
EXTT2=
EXTT3=
EXTT4=
EXTT5=
EXTT6=
EXTT7=
EXTT8=
EXTT9=
EXTT10=
EXTT11=
EXTT12=
EXTT13=
EXTT14=
EXTT15=
EXTT16=
EXTT17=
EXTT18=
EXTT19=
EXTT20=
EXTT21=
PLAYORDER=
